<svg xmlns="http://www.w3.org/2000/svg" id="preview-svg" width="100%" height="100%" viewBox="0 0 400 400"><g><path d="M30.35399 32.94116C128.26805 31.74465 130.87507 27.29285 233.33719 30.17932 231.35520 142.81215 228.16961 138.25352 226.92900 253.62547 126.07097 250.46870 133.78920 247.63919 26.53043 247.35936 27.30426 138.41548 30.36146 137.18262 32.37826 29.02009" style="stroke:#0000ff;stroke-width:4.979590078004946px;fill:none;stroke-opacity:0.8107449617702513"></path>
<path d="M32.17196 32.76803C32.330927071659104 32.59290 39.60692 33.63184 36.24143 37.33947 30.630303373783523 43.52102 32.03103 53.02568 41.20952 42.91411 52.80179023730463 30.14337 61.94684 31.09638 46.17160 48.47532 26.63742259191679 69.99534 25.36426 84.99391 52.29293 55.32769 77.85942756606732 27.16211 91.03526 22.98574 56.94966 60.53647 27.321650814923895 93.17645 17.95786 116.83889 62.96133 67.26040 103.91843539347022 22.13961 112.35317 23.33903 67.68458 72.54860 28.577127812044164 115.63170 32.84887 121.25096 72.32797 77.75844 119.82537455492326 25.43247 130.89376 23.43604 76.90607 82.91209 23.367544507033465 141.89332 18.55588 159.65285 82.48577 89.22387 149.0180084079521 15.92800 158.89197 16.68960 87.68284 95.13781 19.76789748660378 169.95695 26.06287 172.35885 91.84067 99.89412 170.00148393065956 13.78751 181.75227 9.82016 95.82993 104.47732 17.63571357136356 190.62073 19.56899 201.81217 101.73511 111.29308 200.6897627766044 2.27874 191.70470 23.63250 106.80197 117.16641 13.443596143132538 220.01555 -6.47062 251.20565 110.88788 121.91653 203.04906693426045 20.38629 226.10910 8.77917 116.97327 129.00970 23.770550711788086 231.68736 7.96931 262.65729 122.94748 135.99049 222.9319877832848 25.84160 235.05770 21.56327 128.73627 138.69329 9.782333250900535 269.74003 21.22122 266.79184 136.05150 140.28796 240.10991473607135 25.65102 258.00490 19.36945 141.98065 147.18867 45.0307547754568 253.99444 49.53632 262.99098 148.10287 154.40421 240.6911837518145 52.40341 256.70348 48.76212 154.19197 161.69490 57.755200125433774 267.93539 88.59942 247.73871 160.12721 168.93943 251.8387185298272 67.90458 251.74617 76.92522 163.93057 173.66811 99.02186603048196 245.17541 90.82961 267.15364 169.39701 180.59911 246.21305177751103 95.97399 231.11622 123.09063 173.77254 186.26384 100.85126535778102 266.59826 107.28789 268.42083 177.46339 191.11131 242.5206983367276 119.44031 238.60129 135.74795 182.40423 197.65799 120.31196666599833 266.06252 130.57538 267.77486 187.77074 204.76505 237.9835995853821 149.44758 238.35020 157.93252 191.45247 209.59785 155.96140126338256 248.69693 161.11452 253.64349 195.88170 215.34190 237.40235139760279 169.60027 235.56276 183.20476 200.74866 221.55804 165.6105995886955 260.26822 179.89355 258.57077 206.70375 229.03506 232.97222278723393 200.09614 231.11393 213.82752 211.70124 235.21370 192.84860539331854 255.98288 202.23693 256.97028 216.57806 241.17124 229.04229653998618 227.43989 229.28535 237.20272 220.91761 246.42112 214.19653928358315 253.82545 225.10725 253.72431 226.09757 252.63331 " style="stroke:#0000ff;stroke-width:6.276451951098938px;stroke-linecap:round;stroke-linejoin:round;stroke-opacity:0.8126518088881858;fill:none"></path>
<path d="M201.17166 72.44154C270.65658 76.30540 323.15775 131.95692 322.06670 199.68269 324.26118 271.25716 268.27792 322.70361 200.63852 326.61551 133.29397 323.67517 72.90273 267.08688 76.33649 201.89673 75.44739 129.33016 132.66214 73.55363 201.12246 76.21648" style="stroke:#ff0000;stroke-width:3.6833490902197856px;fill:none;fill-opacity:0.5;stroke-opacity:0.8086670902790501"></path>
<path d="M107.52063 118.72284C120.84438022286871 103.22195 154.66977 76.27862 113.52292 124.14901 70.87243097247955 173.76874 69.80945 187.71386 119.65081 129.72824 165.78017502010266 76.06119 187.98380 60.14058 124.41644 134.09506 70.12872820583581 197.25357 57.44411 224.68369 130.46605 139.72973 185.0466984746333 76.23041 188.78709 84.65618 136.31977 145.69683 69.33981474903196 223.62155 63.70011 241.55263 143.16823 149.09915 210.33292613464548 70.95951 235.21715 52.29668 148.02031 153.74178 79.6409825473874 233.29453 61.90302 266.71755 154.15286 159.39377 213.09853968658632 90.81616 257.54822 50.51140 159.68525 164.36551 68.31767671623214 270.66286 73.21402 276.00470 165.07274 169.13594 268.79242112100604 48.46811 263.77972 67.53557 171.55985 174.82448 82.20256805281113 278.78305 103.33469 263.74593 176.24997 178.91604 283.57008361177236 54.05945 284.51720 64.85709 182.10033 184.00923 95.28098712999626 285.01515 92.17935 301.28010 188.32283 189.42644 300.5810705685701 58.82483 301.38513 72.28918 195.39531 195.59810 87.79684279984731 320.77853 104.11246 315.68369 202.20257 201.56531 292.0947215275443 96.98448 295.73790 106.80694 209.07653 207.62908 115.18033323131327 316.86824 127.82484 313.82573 214.76285 212.68174 311.4198213233393 100.23069 308.51818 117.48164 221.49935 218.71966 121.22939226337982 335.37407 125.25212 342.05504 226.99115 223.69151 325.0807529342785 109.57372 313.23491 135.40940 232.79029 228.99895 141.83011347513497 334.82233 148.42831 340.47823 239.16521 234.91460 334.1460012976536 124.41362 317.45768 157.09235 245.45823 240.85675 156.0768615300698 344.84334 190.29842 316.86926 251.02484 246.21993 321.39100840479193 164.35569 332.46737 163.82509 256.76977 251.89193 190.1781715766559 329.36482 194.85566 336.19278 262.49932 257.49592 337.2320774242912 170.55157 337.44185 183.04452 268.77115 262.93625 194.64469011915477 349.17523 215.95730 337.80259 275.65093 268.35482 330.4989208036027 204.54447 329.00663 219.20418 282.31340 273.52725 231.0755400798128 333.13755 258.80208 311.39329 287.76070 277.70274 312.6019064771257 248.80239 302.75362 270.29701 292.98441 281.66254 " style="stroke:#ff0000;stroke-width:4.868055067439873px;stroke-linecap:round;stroke-linejoin:round;stroke-opacity:0.3663618222461082;fill:none"></path>
<path d="M52.12999 338.83053C147.77911 339.33247 146.42805 338.88440 247.59821 340.04541 199.77707 253.40068 200.22718 252.65352 151.19997 162.15699 97.54801 248.54563 102.26384 253.03204 52.29645 336.23780" style="stroke:#00ff00;stroke-width:6.016960285057624px;fill:none;stroke-opacity:0.806998338853009"></path>
<path d="M148.41621 168.98755C143.37500461442554 174.32029 123.61830 204.94369 142.08086 185.41344 157.86087293749978 168.72088 166.36828 168.87561 137.03770 199.90238 113.37495220810018 224.93353 97.84911 253.55437 131.49914 217.95837 162.04661090531977 185.64435 170.72615 187.54132 126.69490 234.11888 74.68505694440884 289.13644 64.69154 312.40162 120.22022 253.66174 174.38913250908016 196.36026 181.28120 199.59696 113.81162 270.96828 50.35427144548333 338.09535 59.44001 338.01123 118.45101 275.58765 171.9768659808281 218.96641 203.34007 195.35388 124.58899 278.65910 55.82648592646121 351.39812 61.42263 354.61272 130.45139 281.59205 179.43930877921576 229.77117 202.92811 216.21695 137.70007 285.21710 75.86519116975117 350.62787 91.64139 345.53587 145.14535 288.93780 197.96094870870422 233.06789 207.41432 233.90732 152.10686 292.41320 107.42295170027515 339.68116 122.77301 334.44938 159.17811 295.93899 199.33937020536467 253.45521 205.76218 256.07766 165.23060 298.95317 123.21064391295884 343.40312 130.86186 347.50818 173.07368 302.85526 207.95942814881994 265.95208 212.22282 271.38838 179.46932 306.03600 143.8826383723252 343.68065 155.52485 343.30385 187.14518 309.85493 215.6742926381375 279.67599 218.79542 286.82462 193.86208 313.19985 166.40967126005754 342.23982 173.53836 344.27506 200.01522 316.26705 221.29365737279673 293.75809 232.14403 294.60552 207.93228 320.21743 185.30405509326755 344.15424 193.29722 345.48560 214.21711 323.35592 231.316108202565 305.26809 234.56570 313.32007 221.59401 327.04190 207.23245727544264 342.23398 219.90179 341.28709 229.58970 331.03893 240.8376183171215 319.14055 243.37891 327.51434 236.69039 334.58965 229.77293499441066 341.90715 240.76413 340.45019 243.21800 337.85442 " style="stroke:#00ff00;stroke-width:4.881186669060339px;stroke-linecap:round;stroke-linejoin:round;stroke-opacity:0.8068113613501191;fill:none"></path>
<path d="M50.29712 373.80627C196.78908 373.16524 202.49565 372.80314 353.43590 369.98192 344.57944 210.79970 345.67464 211.98487 353.21790 45.86613M343.45991 65.57757C348.48970 55.87411 347.91198 56.19363 352.87749 45.67401 358.00125 55.62098 358.01372 55.56980 363.51551 66.04357" style="stroke:#000000;stroke-width:7.490119925813128px;fill:none;stroke-opacity:0.7435406977566891"></path>
<path d="M1000.00000 1000.00000C1000.00000 1000.00000 1000.00000 1000.00000 1000.00000 1000.00000" style="stroke:none;fill:none;stroke-width:4.350081326452394px;stroke-opacity:0.7765408559888601"></path>
</g></svg>
