<svg id="preview-svg" xmlns="http://www.w3.org/2000/svg" width="100%" height="100%" viewBox="0 0 400 400"><g><path d="M30 30C130 30 130 30 230 30 230 140 230 140 230 250 130 250 130 250 30 250 30 140 30 140 30 30" style="stroke:#0000ff;stroke-width:1px;fill:#0000ff"/><path d="M200 75C269 75 325 131 325 200 325 269 269 325 200 325 131 325 75 269 75 200 75 131 131 75 200 75" style="stroke:#ff0000;stroke-width:5px;fill:#ff0000;fill-opacity:0.5"/><path d="M50 340C150 340 150 340 250 340 200 250 200 250 150 160 100 250 100 250 50 340" style="stroke:#00ff00;stroke-width:1px;fill:#00ff00"/><path d="M50 370C200 370 200 370 350 370 350 210 350 210 350 50M340 70C345 60 345 60 350 50 355 60 355 60 360 70" style="stroke:#000000;stroke-width:1px;fill:none"/><path d="M1000 1000C1000 1000 1000 1000 1000 1000" style="stroke:none;fill:none"/></g></svg> 
