<svg xmlns="http://www.w3.org/2000/svg" id="preview-svg" width="100%" height="100%" viewBox="0 0 400 400"><g><path d="M30.34096 27.21070C131.45601 27.40244 129.30368 32.75208 229.41879 32.23283 228.51627 137.14665 231.25711 137.54587 230.48409 247.52946 127.62847 249.53246 127.61683 250.86074 30.73018 247.32923 31.83418 138.39722 28.87920 137.56356 32.89462 31.07169" style="stroke:#0000ff;stroke-width:4.029025533001249px;fill:none;stroke-opacity:0.8146030759019777"></path>
<path d="M33.83870 28.94291C35.247011070026005 26.94988 41.97249 26.34133 36.95313 33.44470 31.95307135134065 40.52075 30.18797 51.37534 39.73591 37.86316 49.307733321968215 24.31717 56.55192 23.67949 42.94262 42.93929 29.566239345702158 61.86946 28.14370 73.44501 46.13891 47.97831 64.25169251510641 22.34521 71.18679 21.43421 49.12268 52.65921 25.281094966879156 86.39967 27.26519 93.18726 52.34857 57.68942 79.01078190139627 19.95722 85.05846 21.12478 55.63137 62.76981 27.502152734121633 102.57811 22.17165 120.27516 59.07435 68.05068 92.34787530911952 20.96220 99.35648 19.51646 61.96080 72.43859 24.673521998959384 125.20732 21.46226 138.60735 64.99008 77.00706 102.44568672748923 24.00011 110.16575 21.45190 67.86554 81.31491 21.54329347991223 146.86986 25.33197 150.24378 70.87077 85.79755 125.16719997821387 8.95759 120.33924 24.34603 73.81688 90.18418 19.788650145820924 166.64460 21.50064 173.64486 77.06037 95.01706 130.6251547113941 19.21251 144.10913 8.71532 80.01190 99.42531 23.11935207105201 179.93930 23.06243 189.25804 83.18324 104.17544 145.61096892994692 15.82810 150.65065 18.95748 86.70110 109.45848 24.796829083100373 197.06502 10.49412 226.83097 89.96381 114.36596 159.83980104347455 15.47789 174.50871 3.29583 92.90144 118.78593 12.011778357407799 233.26049 15.82665 237.96671 96.36333 123.99170 185.87800631674557 -2.68892 188.04003 3.68568 99.59752 128.84897 15.971522023291566 247.19597 20.99566 248.44316 102.46469 133.14868 191.09639345313968 7.71765 208.89283 -9.04378 105.35697 137.47952 21.64943355054415 255.94191 10.73238 281.27334 110.72701 139.76156 213.50794609317242 -5.69339 209.10851 10.39572 117.57752 139.92981 22.622771769528512 274.30918 21.14343 285.12284 123.64430 140.06426 214.3286033288167 11.72839 217.90108 16.12625 130.23173 140.19537 35.153216652423936 274.74990 48.72414 265.03535 136.85574 140.31205 240.8276123378264 -6.82830 231.13104 15.40679 142.80583 140.40409 39.035584718864214 287.25909 62.12847 263.41026 148.98822 140.48687 245.77125939443985 3.52011 238.71401 21.87477 153.85016 141.97357 62.63797705054013 271.05649 80.30650 256.26123 157.35666 147.22033 252.02063361492202 13.25245 245.50020 31.49128 160.46706 151.82965 73.43452996746359 274.99755 89.65688 260.53694 163.41522 156.15459 235.70617924642926 53.84887 236.94899 62.26492 166.96756 161.30221 84.64159019329202 277.80941 103.34102 261.56477 170.56248 166.43338 250.415526178322 53.42584 243.15875 73.60836 174.07849 171.37033 98.07385702166027 278.93161 110.61637 270.94728 177.57133 176.19304 248.81272830112346 75.37264 237.54688 100.38265 180.83944 180.63466 117.29049645545315 270.56874 127.80169 264.64692 184.08848 184.99020 239.23766702520118 106.94341 243.95623 109.42697 187.43087 189.42131 133.44438152668573 265.82265 146.60530 256.58058 190.86670 193.94211 244.33325262263577 118.27658 235.05184 140.32904 194.13689 198.23162 146.3927679386093 265.79881 153.36585 264.84704 197.40527 202.52273 237.7349948003698 145.44835 236.15540 156.90660 200.77925 206.97071 162.35331491118222 261.35086 169.39734 259.87571 203.87739 211.07975 237.01714863188616 164.18058 235.93629 176.01231 207.62148 216.08325 177.6330480908747 258.52270 186.46581 255.85453 211.17989 220.87930 238.15676927681602 182.70179 233.06944 199.11190 214.50054 225.39050 195.94174370950097 251.65479 200.12245 255.00376 217.82907 229.94547 233.4024807305969 207.90607 233.17581 216.65460 220.84695 234.10234 210.04118279010743 249.39459 216.46855 249.09007 223.98596 238.45148 231.87631584444242 227.28510 231.57514 236.53405 227.12751 242.82832 " style="stroke:#0000ff;stroke-width:4.1351756550877665px;stroke-linecap:round;stroke-linejoin:round;stroke-opacity:0.7440602941135875;fill:none"></path>
<path d="M199.11587 76.61757C269.57580 73.46501 323.67490 130.03339 324.47721 198.16623 323.52368 267.56742 267.52883 325.87558 199.71095 323.35839 132.18427 326.66650 73.73361 267.57275 73.40924 200.11224 73.77249 129.68593 132.59640 75.36246 201.11179 73.79800" style="stroke:#ff0000;stroke-width:3.648091415958789px;fill:none;fill-opacity:0.5;stroke-opacity:0.7384485946013591"></path>
<path d="M118.44543 112.25008C80.96344746877739 146.38622 75.31143 159.11679 122.38445 116.24575 172.21257177108737 70.86556 188.82426 62.47754 125.87928 119.80371 70.44109796003497 170.29319 64.92371 183.29556 130.00714 124.02182 203.46869460391116 57.11783 208.84689 58.89466 133.45422 127.55738 62.93352672764185 191.78302 58.76020 202.98499 137.26911 131.48420 215.3307852964008 60.39072 220.79317 62.43835 139.41813 136.54942 54.102590471397065 214.24925 58.42246 217.12739 143.01971 140.08174 219.69575846346547 70.25020 246.76271 53.51149 147.18760 144.19801 48.64343997979441 233.94559 49.40100 241.13904 151.30963 148.32731 253.63768985231968 55.13359 248.94920 65.92291 154.69827 151.76050 44.5689880166794 252.05906 65.40147 240.77539 158.67427 155.82861 268.88709194122947 55.45397 277.46640 54.75883 162.33722 159.61098 68.5783334595547 245.00045 64.26313 256.09195 166.00681 163.43045 263.68776547246716 74.46901 275.38377 70.52173 169.42948 167.01797 72.99792819518292 254.84154 52.13173 280.56802 172.85007 170.62563 272.8928648597352 79.51319 301.05659 60.68312 176.30917 174.29493 58.417566693595404 281.66291 63.08017 285.32043 180.30590 178.55888 300.8062250483453 68.81505 307.45287 69.84998 183.87987 182.39220 59.913027241864896 295.29311 68.27632 295.64564 187.88743 186.71165 293.9344574850159 90.13094 295.37957 95.83948 191.41146 190.52684 85.62256579926448 286.87246 69.59545 309.12901 195.24603 194.69467 314.81977828447646 85.79471 319.08165 88.69376 198.63379 198.38981 70.12970147507895 315.42294 84.69313 309.62380 202.35687 202.46334 318.458597243002 96.72547 326.16460 96.94560 205.96167 206.41858 92.72256447061537 309.54936 105.52461 305.46169 209.72747 210.56053 329.2279038865865 101.72733 318.39308 119.01359 213.41314 214.62246 90.27147647260229 326.77185 94.58536 330.67447 217.30068 218.91337 313.78428769086855 131.04240 329.46412 124.48338 221.13154 223.14562 116.56296573778653 318.37985 110.12218 331.04891 224.50657 226.87508 326.10820036630787 134.34294 336.60441 132.36763 228.27008 231.03146 108.0261921770594 340.54175 127.60249 330.64810 232.21143 235.37710 343.7074284718824 133.83383 336.56914 147.33018 235.69135 239.20308 131.5200250724001 334.07552 135.55072 338.11425 239.53591 243.41133 351.9875942657532 140.99768 352.03882 148.18430 243.15594 247.34772 145.21186802597168 336.54878 161.59739 328.11960 246.42106 250.86774 347.28982333076266 159.00305 335.94735 177.17683 250.39225 255.09483 153.80716106382818 343.05822 167.59358 337.03614 253.73207 258.58683 346.7084249578685 173.91003 340.52580 186.84560 257.47201 262.48558 166.92216383410187 344.95246 191.91262 328.73044 260.82467 265.96984 347.31379359079733 187.20119 343.04886 198.18438 264.22984 269.96760 183.65131655410988 343.35325 193.76177 341.93795 267.85990 274.45421 337.98185829411574 210.59171 329.46695 224.97980 270.94098 278.28143 204.66718855138313 338.63928 217.67636 334.02810 274.29302 282.46534 329.23112971455606 232.43130 314.88544 253.21717 277.85852 286.93886 235.95497008905917 325.10189 260.63224 309.35416 280.95595 290.84465 " style="stroke:#ff0000;stroke-width:3.8755879874493306px;stroke-linecap:round;stroke-linejoin:round;stroke-opacity:0.37825181042426265;fill:none"></path>
<path d="M47.52440 339.87055C150.23461 337.68442 151.64639 338.28411 247.80352 339.35762 197.49906 248.50968 197.52944 248.85312 149.20565 162.90222 100.98055 247.64729 101.93806 248.51931 51.13544 342.11172" style="stroke:#00ff00;stroke-width:4.086580783261296px;fill:none;stroke-opacity:0.7624883730127476"></path>
<path d="M147.90242 167.82253C151.097949223825 165.21309 154.74260 169.52621 145.46102 177.10547 135.16181582940743 185.51570 127.53445 197.98660 143.39963 185.03124 160.30999872068884 171.22239 160.84172 177.97033 141.07263 194.11358 116.63780232159648 214.06684 110.11713 227.06768 138.65442 203.76438 170.28961236738337 177.93138 171.87460 183.29953 136.62471 212.08426 98.17431569535421 243.48250 97.60898 250.71621 134.62783 220.48695 177.9696559912174 185.09441 172.67857 196.97086 132.45921 229.81363 85.81828233223236 267.90018 78.73722 279.92562 130.69069 237.50089 183.39034827443504 194.46684 188.84742 197.19994 128.65670 246.35113 71.0401677119291 293.40026 65.78526 304.38015 126.75401 254.59363 196.7456566160755 197.43910 197.58254 204.15286 124.63170 263.72385 54.581355556086244 320.92632 56.91571 325.49039 122.75826 271.72397 199.57000771768114 209.00021 203.92619 212.41074 120.72339 280.35338 36.23743965801454 349.34383 42.01973 352.07178 122.79471 286.11167 212.83656546955578 212.58432 204.26429 226.60262 128.55377 288.42713 45.135408908870176 356.54580 70.39091 342.58204 134.01478 290.62737 202.0738149631054 235.05099 215.76064 230.78823 139.67926 292.91558 72.03037759978798 348.15704 78.92652 349.58955 145.46022 295.25874 206.25536210944657 245.61399 208.91385 250.57122 151.28549 297.63001 84.51560700295951 352.15368 90.47278 353.53758 156.38340 299.71557 220.73164677281812 247.16939 215.12628 259.21282 162.46195 302.21803 104.66989416574378 349.41049 115.64987 346.71883 167.55733 304.33168 215.62792921973312 265.07767 217.59016 270.17108 172.97947 306.59977 122.34741455686267 347.94544 134.25117 345.53028 178.87504 309.09084 222.65554901149005 273.34007 224.29254 278.81336 184.35101 311.42925 146.54849736682363 342.29844 152.08112 344.24551 189.53243 313.66311 229.42794918280526 281.08480 231.17457 287.15096 195.51922 316.26680 161.89599598920725 343.72321 167.99075 345.80341 201.14415 318.73065 233.97232768978634 291.92346 232.15602 300.72397 206.96637 321.29361 181.25731930589578 342.28738 186.48384 344.47814 212.09984 323.56035 234.32593374371638 305.41073 236.77048 310.86892 218.02104 326.17954 199.20382765724102 341.54550 206.97688 341.80818 223.27003 328.50334 241.10874726741636 313.93641 242.31086 320.31987 229.11824 331.09283 217.42109802573907 340.64461 226.18282 341.07565 235.14235 333.75938 243.25837350082992 327.13191 245.37300 332.43531 240.72645 336.22964 235.69863865921786 340.33531 244.55748 339.56058 245.85842 338.49824 " style="stroke:#00ff00;stroke-width:4.258993498027635px;stroke-linecap:round;stroke-linejoin:round;stroke-opacity:0.8002545238216408;fill:none"></path>
<path d="M47.69677 366.33528C203.85543 369.05082 199.55526 373.50553 353.67979 369.83576 346.10568 209.59358 350.18895 206.14344 350.04972 54.30683M340.30968 74.45181C344.88460 64.57053 344.76770 64.34453 350.00946 54.58181 355.22952 64.39639 355.04922 64.64143 360.00649 74.02075" style="stroke:#000000;stroke-width:4.038002744981398px;fill:none;stroke-opacity:0.7773015402094461"></path>
<path d="M1000.00000 1000.00000C1000.00000 1000.00000 1000.00000 1000.00000 1000.00000 1000.00000" style="stroke:none;fill:none;stroke-width:4.227796830897529px;stroke-opacity:0.7585164086008445"></path>
</g></svg>
