<svg xmlns="http://www.w3.org/2000/svg" width="745px" height="315px" viewBox="0 0 745 315">
<defs/>
<g>
<rect fill="#6bbdff" width="745" height="350" x="0" y="0"/>
<g transform="scale(1,0.85)">
<path fill="#4cf121" d="M60.693 182.54h121.1V322.6h-121.1z"/>
<path fill="#91c0a6" d="M279.88 171.34h130.79V322.6H279.88z"/>
<path fill="#b01033" d="M485.75 169.94h145.32v168.07H485.75z"/>
<path fill="#80d42f" d="M512.388 224.575l-69.632-30.782-61.4 48.89 3.795-86.103-59.177-52.43L397.95 81.72 422.778.424l40.69 72.24 74.52 2.186-46.828 67.08z"/>
<path fill="#b1b5ea" d="M189.06 55.093h127.15v147.06H189.06z"/>
<path fill="#992fd4" d="M199.954 231.576l-49.03-53.95-66.223 16.126 29.216-70.6L80.19 55.29l67.086 10.32 45.38-58.066 12.246 76.976 61.772 31.972-59.516 37.258z"/>
<ellipse rx="73.265" ry="84.733" cy="272.88" cx="282.91" fill="#63622e"/>
<path fill="#2f9cd4" d="M277.456 311.406l-60.725-12.01-42.98 51.046-8.89-70.507-55.26-31.503 55.233-31.564 8.83-70.517 43.024 51 60.716-12.08-28.642 63.084z"/>
<path fill="#cd5e28" d="M614.12 230.164l-38.633-46.4-54.95 10.5 26.217-56.833-25.616-57.2 54.838 11.278 39.12-45.852 7.673 63.803 49.793 28.86-50.095 28.156z"/>
<path fill="#cd2862" d="M503.91 332.408l-58.516-23.645-50.014 42.346 1.36-71.672-50.277-41.928 59.357-20.65 18.94-68.257 35.325 58.908 61.983-.257-37.525 57.057z"/>
<path fill="#28cd7d" d="M717.038 347.82l-57.42-27.38-52.055 39.183 4.772-71.62-48.307-45.15 60.37-16.883 22.2-67.086 32.538 61.185 62.028 3.686-40.26 54.698z"/>
<ellipse rx="68.421" ry="79.131" cy="239.27" cx="573.55" fill="#95bcd6"/>
<ellipse rx="72.659" ry="84.033" cy="111.11" cx="541.46" fill="#e515a2"/>
<ellipse rx="61.76" ry="71.428" cy="97.109" cx="344.06" fill="#3028cd"/>
<ellipse rx="72.054" ry="83.333" cy="263.07" cx="78.252" fill="#e53715"/>
<ellipse rx="64.182" ry="74.229" cy="115.32" cx="66.748" fill="#f4f31f"/>
<path fill="#1b2982" d="M574.15 36.886h141.69v163.86H574.15z"/>
<path fill="#8a7422" d="M415.51 108.31H535.4v138.65H415.51z"/>
<path stroke-linejoin="round" d="M25.713 225.65l11.285-31.852q7.59 6.137 13.502 9.012 5.978 2.796 11.15 2.796 3.628 0 5.71-1.553 2.083-1.632 2.083-4.35 0-4.74-10.412-7.226-3.358-.854-5.238-1.32-11.016-3.108-16.86-11.032-5.844-7.924-5.844-19.732 0-18.334 11.352-29.832t29.757-11.497q8.463 0 16.66 2.563 8.194 2.564 16.523 7.77l-10.748 29.753q-5.105-4.352-10.277-6.604-5.105-2.33-9.942-2.33-3.694 0-5.71 1.475-2.015 1.4-2.015 3.963 0 4.817 14.71 8.468 2.352.622 3.63.933 10.142 2.642 15.986 10.798 5.844 8.158 5.844 19.733 0 18.878-11.822 30.842-11.755 11.964-30.63 11.964-9.673 0-19.346-3.186-9.673-3.185-19.346-9.555z" stroke="#000" stroke-width="3.699" fill="#fff"/>
<path stroke-linejoin="round" d="M116.87 235.36V114.95h33.384v70.773l14.173-30.686h39.497l-24.652 38.61 25.996 41.718h-39.9L150.254 205.3v30.065H116.87z" stroke="#000" stroke-width="3.699" fill="#fff"/>
<path stroke-linejoin="round" d="M286.21 201.57l-47.894.078v1.243q0 6.138 1.88 9.168 1.95 2.952 5.845 2.952 2.352 0 4.098-1.554 1.747-1.63 2.754-4.66h31.638q-4.5 15.46-14.51 22.528-10.008 7.07-24.517 7.07-8.06 0-15.114-2.875-6.987-2.798-12.562-8.236-6.247-6.292-9.605-14.527-3.36-8.235-3.36-17.324 0-9.167 3.36-17.402 3.425-8.31 9.605-14.45 5.576-5.515 12.56-8.31 6.987-2.798 15.115-2.798 11.15 0 20.017 5.205 8.867 5.127 14.778 14.994 3.023 5.05 4.5 11.188 1.546 6.06 1.546 13.284 0 1.865-.067 2.797 0 .93-.068 1.63zm-47.625-17.48l15.248.078q-.202-4.74-2.082-6.992-1.813-2.253-5.44-2.253-3.225 0-5.24 2.408-1.948 2.332-2.485 6.76z" stroke="#000" stroke-width="3.699" fill="#fff"/>
<path stroke-linejoin="round" d="M301.39 235.36v-50.73h-9.47v-29.598h9.47v-26.57h33.72v26.57h9.606v29.6h-9.606v50.728h-33.72z" stroke="#000" stroke-width="3.699" fill="#fff"/>
<path stroke-linejoin="round" d="M407.18 189.37q-2.687-2.72-5.508-4.04-2.82-1.398-5.91-1.398-5.106 0-8.13 3.185-3.022 3.108-3.022 8.313 0 4.972 2.956 8.157 2.955 3.107 7.657 3.107 2.956 0 5.912-1.476 3.022-1.553 6.045-4.506v31.93q-5.24 2.952-10.143 4.35-4.836 1.398-9.538 1.398-7.726 0-14.31-3.03-6.582-2.952-11.687-8.778-5.374-6.215-8.195-14.06-2.822-7.925-2.822-16.78 0-6.138 1.344-11.887 1.41-5.827 4.165-11.032 5.24-9.866 13.3-15.07 8.127-5.284 18.204-5.284 4.432 0 9.268 1.087 4.904 1.087 10.412 3.34v32.473z" stroke="#000" stroke-width="3.699" fill="#fff"/>
<path stroke-linejoin="round" d="M418.6 235.36V114.95h33.25v33.25q0 6.836-.134 10.643t-.403 7.303q4.366-6.914 9.672-10.255 5.307-3.418 11.957-3.418 11.083 0 17.532 7.77 6.516 7.768 6.516 21.208v53.915h-33.855v-40.552q0-6.06-1.075-8.235-1.007-2.253-3.627-2.253-2.956 0-4.5 2.642t-1.545 7.846v40.552H418.6z" stroke="#000" stroke-width="3.699" fill="#fff"/>
<path stroke-linejoin="round" d="M546.77 130.02q0 8.623-4.904 13.75-4.903 5.05-13.233 5.05-8.396 0-13.367-5.127-4.97-5.127-4.97-13.673 0-8.545 4.903-13.44 4.903-4.972 13.433-4.972 8.464 0 13.3 4.972 4.837 4.895 4.837 13.44zm-35.064 105.34v-80.328h33.72v80.328h-33.72z" stroke="#000" stroke-width="3.699" fill="#fff"/>
<path stroke-linejoin="round" d="M565.24 235.36v-50.73h-9.068v-29.598h9.068v-9.09q0-16.624 7.725-25.558t22.167-8.934q3.76 0 7.523.466 3.762.466 7.59 1.398v30.22q-.537-.078-1.477-.233-2.486-.387-3.36-.387-3.492 0-4.97 2.175t-1.477 7.535v2.41h11.286v29.598H598.96v50.73h-33.72z" stroke="#000" stroke-width="3.699" fill="#fff"/>
<path stroke-linejoin="round" d="M639.53 228.37l-30.16-73.336h37.012l5.24 20.51q.067.31.2.776 3.628 14.605 4.3 21.83l3.09-14.916q1.21-5.594 1.88-8.157l5.106-20.043h34.66l-42.384 113.11h-35.87l16.927-39.776z" stroke="#000" stroke-width="3.699" fill="#fff"/>
</g>
</g>
</svg>

